<?xml version="1.0" encoding="UTF-8"?>
<svg width="200" height="200" viewBox="0 0 200 200" xmlns="http://www.w3.org/2000/svg">
  <!-- 背景圆形 -->
  <circle cx="100" cy="100" r="90" fill="#f0f4f8" />
  
  <!-- JSON符号 (左侧) -->
  <g transform="translate(40, 65)">
    <path d="M0,0 C0,15 0,30 0,45 C0,55 25,55 25,45 L25,10" 
          stroke="#0066cc" stroke-width="6" fill="none" stroke-linecap="round" />
    <path d="M40,0 C40,15 40,30 40,45 C40,55 15,55 15,45 L15,10" 
          stroke="#0066cc" stroke-width="6" fill="none" stroke-linecap="round" />
  </g>
  
  <!-- 转换箭头 (中间) -->
  <g transform="translate(90, 100)">
    <path d="M-10,0 L10,0 M5,-5 L10,0 L5,5" 
          stroke="#333333" stroke-width="4" fill="none" stroke-linecap="round" stroke-linejoin="round" />
  </g>
  
  <!-- Markdown符号 (右侧) -->
  <g transform="translate(120, 70)">
    <!-- # 符号 -->
    <path d="M0,0 L0,40 M15,0 L15,40 M0,20 L15,20" 
          stroke="#22863a" stroke-width="6" fill="none" stroke-linecap="round" />
    <!-- - 符号 -->
    <line x1="25" y1="10" x2="45" y2="10" stroke="#22863a" stroke-width="6" stroke-linecap="round" />
    <line x1="25" y1="20" x2="45" y2="20" stroke="#22863a" stroke-width="6" stroke-linecap="round" />
    <line x1="25" y1="30" x2="45" y2="30" stroke="#22863a" stroke-width="6" stroke-linecap="round" />
  </g>
  
  <!-- 边框 -->
  <circle cx="100" cy="100" r="90" fill="none" stroke="#e0e6ea" stroke-width="3" />
</svg> 